<svg width="374" height="397" viewBox="0 0 374 397" fill="none" xmlns="http://www.w3.org/2000/svg">
<path d="M209.955 181.533C308.707 181.533 286.65 135.236 286.65 233.987C286.65 332.739 277.93 304.03 179.178 304.03C80.4255 304.03 0 256.772 0 158.021C0 59.2696 111.204 181.533 209.955 181.533Z" fill="#E6E6E6"/>
<path d="M121.316 146.364C125.89 142.584 131.548 141.88 133.953 144.792C136.358 147.703 134.597 153.127 130.022 156.907C128.215 158.443 126.066 159.523 123.756 160.057L104.172 175.828L96.9669 166.48L117.038 151.924C117.999 149.755 119.466 147.848 121.316 146.362V146.364Z" fill="#ED9DA0"/>
<path d="M21.9246 133.56L17.7162 155.648L38.6928 161.561L36.0865 137.98L21.9246 133.56Z" fill="#ED9DA0"/>
<path d="M8.12211 181.946C8.11221 181.249 8.11864 175.163 12.6226 171.32C17.7964 166.903 25.0967 168.691 27.6574 169.318C33.5724 170.766 34.0576 173.304 39.6121 175.91C50.0043 180.788 36.9831 178.291 43.167 176.727C45.3073 176.186 76.1007 174.05 83.7654 169.332C98.673 160.157 108.83 154.593 108.83 154.593L115.471 167.874C115.471 167.874 105.869 181.225 92.3554 191.115C78.4926 201.261 71.5611 206.334 61.0293 208.296C60.1223 208.464 37.8139 212.273 19.8461 198.849C15.7477 195.788 8.23846 190.177 8.12161 181.948L8.12211 181.946Z" fill="#B46A76"/>
<path d="M28.7204 148.171C41.4957 148.171 51.8521 137.815 51.8521 125.04C51.8521 112.264 41.4957 101.908 28.7204 101.908C15.9451 101.908 5.58868 112.264 5.58868 125.04C5.58868 137.815 15.9451 148.171 28.7204 148.171Z" fill="#ED9DA0"/>
<path d="M209.88 280.447L186.057 256.062L173.76 268.89L191.508 292.271L209.113 294.285L209.88 280.447Z" fill="#ED9DA0"/>
<path d="M73.852 234.719C75.2452 234.835 79.6734 235.722 83.9056 233.393C85.8955 232.256 87.5695 230.639 88.7754 228.69C94.9825 219.368 118.806 204.83 140.188 203.935C145.03 203.732 148.217 204.293 151.114 205.803C155.223 207.945 156.861 211.012 162.074 218.197C164.925 222.127 168.08 225.83 170.965 229.733C187.859 252.594 194.264 254.389 193.609 261.719C192.883 269.851 184.113 277.566 178.284 276.675C175.896 276.31 174.972 274.651 171.782 271.29C162.431 261.437 158.563 263.257 151.903 255.711C144.13 246.898 145.148 239.594 141.092 239.312C137.33 239.05 135.733 245.283 127.704 253.562C124.03 257.35 121.416 259.088 113.445 264.617C82.4059 286.151 81.9103 287.664 75.6462 289.382C72.9054 290.133 53.4538 295.466 46.5248 286.979C35.682 273.699 61.2982 233.673 73.8545 234.716L73.852 234.719Z" fill="#131F2F"/>
<path d="M202.597 285.956C204.349 285.17 206.397 284.25 207.056 282.134C207.279 281.391 207.329 280.607 207.202 279.841C207.075 279.076 206.775 278.35 206.324 277.718C205.26 276.311 203.686 276.126 203.749 275.877C203.848 275.497 207.569 275.646 211.656 277.09C212.427 277.363 215.921 278.639 220.365 282.109C223.926 284.889 223.446 285.446 225.679 287.049C232.533 291.969 238.961 288.091 242.67 292.706C244.101 294.488 244.712 297.013 244.109 299.059C242.9 303.164 237.017 304.577 233.802 305.306C226.059 307.063 220.199 305.629 214.079 304.598C193.268 301.091 181.575 304.285 180.01 299.464C179.713 298.551 180.195 298.629 181.8 291.933C183.384 285.324 183.332 283.509 184.68 282.979C186.71 282.183 188.074 285.806 193.189 287.047C197.721 288.146 201.461 286.466 202.596 285.957L202.597 285.956Z" fill="#131F2F"/>
<path d="M167.527 360.22L161.508 326.665L144.13 330.374L145.687 359.687L159.124 371.239L167.527 360.22Z" fill="#ED9DA0"/>
<path d="M80.6503 245.998C81.7395 246.876 84.9042 250.097 89.7136 250.547C91.999 250.723 94.2922 250.325 96.3846 249.39C106.756 245.161 134.632 246.511 152.826 257.777C156.947 260.328 159.269 262.583 160.818 265.459C163.014 269.537 162.65 272.996 162.927 281.868C163.08 286.72 163.611 291.556 163.806 296.408C164.945 324.812 169.239 329.893 164.582 335.59C159.414 341.911 147.825 343.37 143.502 339.36C141.731 337.718 141.898 335.825 141.146 331.254C138.941 317.85 134.717 317.184 133.446 307.2C131.96 295.545 136.906 290.07 133.708 287.56C130.743 285.233 125.921 289.491 114.628 291.833C109.461 292.905 106.32 292.873 96.6198 292.972C58.8435 293.36 57.5849 294.334 51.4377 292.238C48.7478 291.32 29.6581 284.811 28.6902 273.897C27.1752 256.819 70.8482 238.084 80.6513 245.998L80.6503 245.998Z" fill="#131F2F"/>
<path d="M158.406 360.69C160.297 361.023 162.51 361.412 164.242 360.032C164.844 359.542 165.326 358.921 165.651 358.217C165.975 357.512 166.134 356.742 166.116 355.967C166.026 354.205 164.829 353.168 165.02 352.996C165.313 352.737 168.31 354.95 170.88 358.442C171.365 359.101 173.539 362.119 175.268 367.485C176.655 371.785 175.944 371.977 176.892 374.557C179.8 382.479 187.297 382.878 187.775 388.778C187.959 391.056 187.044 393.49 185.398 394.844C182.092 397.561 176.431 395.428 173.361 394.225C165.968 391.331 161.924 386.854 157.439 382.564C142.19 367.976 130.719 364.052 132.132 359.184C132.399 358.263 132.753 358.597 137.842 353.957C142.863 349.378 143.84 347.847 145.253 348.165C147.382 348.645 146.473 352.41 150.009 356.308C153.143 359.763 157.18 360.473 158.406 360.689L158.406 360.69Z" fill="#131F2F"/>
<path d="M31.8737 129.461C32.7743 126.24 31.643 125.066 32.7961 123.619C32.7961 123.619 33.26 123.037 37.4075 121.466C36.1836 114.366 37.1 113.165 37.1 113.165C38.1561 111.782 40.2712 111.447 41.7114 111.631C44.7573 112.013 45.2965 114.767 47.2452 114.705C49.9376 114.62 53.1661 109.23 52.164 104.56C51.3466 100.747 47.8215 97.9198 46.9377 98.4109C46.0614 98.8976 42.9076 96.7509 41.7114 97.1811C40.8945 97.4747 37.0495 97.0821 36.1777 97.4886C35.2256 97.9302 32.4991 100.68 32.2381 100.334C30.4266 97.9257 30.4652 97.085 29.416 96.5662C27.5535 95.6468 25.529 97.3465 22.039 99.0258C14.8556 102.481 12.7524 100.42 9.4342 103.33C7.75827 104.8 6.85966 107.609 5.13027 113.167C2.71218 120.941 1.50314 124.828 2.67059 128.539C3.86181 132.323 5.61547 131.5 8.20436 136.84C11.0859 142.784 12.9172 145.673 15.6403 147.034C17.745 148.087 18.3025 147.982 19.5793 146.063C21.7657 142.776 16.1136 138.33 18.0445 133.15C19.2278 129.971 22.8772 127.56 25.1156 128.231C27.6461 128.99 27.8327 133.529 29.4195 133.458C30.7786 133.398 31.7222 130.023 31.8792 129.461L31.8737 129.461Z" fill="#131F2F"/>
<path d="M101.217 344.74L67.9915 332.985C67.1011 332.669 66.3724 332.013 65.9655 331.16C65.5586 330.308 65.5068 329.328 65.8214 328.438L81.3875 284.444C81.7031 283.553 82.3593 282.825 83.2119 282.418C84.0645 282.011 85.0437 281.959 85.9345 282.274L119.16 294.03C120.05 294.346 120.779 295.002 121.186 295.855C121.593 296.707 121.645 297.686 121.33 298.577C121.145 315.107 115.511 329.606 105.764 342.571C105.448 343.461 104.792 344.19 103.939 344.597C103.087 345.004 102.108 345.055 101.217 344.74Z" fill="#E6E6E6"/>
<path d="M88.9481 337.434L71.2596 331.175C70.4262 330.879 69.7442 330.265 69.3632 329.466C68.9822 328.668 68.9333 327.751 69.2272 326.917L83.0792 287.768C83.3756 286.935 83.9904 286.254 84.7885 285.873C85.5867 285.493 86.5032 285.444 87.3371 285.739L115.893 295.839C116.727 296.135 117.409 296.749 117.79 297.547C118.171 298.346 118.219 299.262 117.926 300.097C116.292 311.88 113.781 322.452 107.918 328.38C106.6 332.093 103.862 335.132 100.305 336.83C96.749 338.527 92.6645 338.744 88.9481 337.434Z" fill="white"/>
<path d="M81.839 307.047C81.9657 306.693 82.2275 306.404 82.5671 306.243C82.9066 306.082 83.2961 306.063 83.6501 306.189L105.893 314.128C106.247 314.255 106.536 314.516 106.697 314.856C106.858 315.196 106.878 315.585 106.751 315.939C106.625 316.293 106.363 316.582 106.024 316.743C105.684 316.904 105.294 316.924 104.941 316.797L82.695 308.857C82.3418 308.73 82.0533 308.468 81.8929 308.129C81.7324 307.79 81.713 307.4 81.839 307.047Z" fill="#B46A76"/>
<path d="M101.801 305.919C101.927 305.565 102.189 305.276 102.529 305.116C102.868 304.955 103.258 304.935 103.612 305.061L108.505 306.808C108.859 306.934 109.148 307.196 109.309 307.535C109.47 307.875 109.49 308.265 109.363 308.619C109.237 308.972 108.975 309.262 108.636 309.423C108.296 309.584 107.907 309.603 107.553 309.477L102.659 307.73C102.305 307.603 102.016 307.342 101.855 307.002C101.694 306.662 101.675 306.273 101.801 305.919Z" fill="#B46A76"/>
<path d="M77.65 318.781C77.7767 318.427 78.0385 318.138 78.378 317.977C78.7175 317.816 79.107 317.796 79.4611 317.922L101.704 325.862C102.058 325.988 102.347 326.25 102.508 326.589C102.669 326.929 102.689 327.319 102.562 327.673C102.436 328.026 102.174 328.316 101.835 328.477C101.495 328.638 101.105 328.657 100.751 328.531L78.5085 320.591C78.1548 320.465 77.8658 320.203 77.7048 319.864C77.5439 319.524 77.5242 319.135 77.65 318.781Z" fill="#B46A76"/>
<path d="M79.7442 312.913C79.8709 312.56 80.1328 312.271 80.4723 312.11C80.8119 311.949 81.2013 311.929 81.5553 312.055L103.798 319.995C104.152 320.121 104.442 320.383 104.602 320.722C104.763 321.062 104.783 321.452 104.657 321.806C104.53 322.16 104.268 322.449 103.929 322.61C103.589 322.771 103.2 322.79 102.846 322.664L80.6027 314.724C80.249 314.598 79.96 314.336 79.7991 313.996C79.6381 313.657 79.6184 313.267 79.7442 312.913Z" fill="#B46A76"/>
<path d="M14.3505 151.596C19.0842 146.288 38.363 151.782 40.1746 160.204C40.9172 163.669 38.1709 165.131 38.9447 169.119C40.0766 174.953 46.4852 174.555 51.2421 180.494C57.9953 188.925 51.0381 197.167 58.6191 211.237C60.2391 214.244 61.6051 216.778 64.4614 219.231C71.0135 224.859 78.0242 243.73 76.1458 247.515C73.0172 253.812 76.5597 258.436 76.7607 265.961C77.0122 275.375 72.0077 288.425 62.0042 292.707C50.7653 297.518 37.2064 289.55 30.6463 281.64C26.7316 276.919 25.5963 272.565 23.8827 267.191C16.2289 243.17 11.9047 245.343 6.0516 226.302C-0.639718 204.535 -1.95521 179.033 6.0516 170.964C7.1126 169.895 10.0332 167.422 11.8938 162.971C14.3961 156.98 12.2344 153.972 14.3535 151.596H14.3505Z" fill="#B46A76"/>
<path d="M84.2937 275.147C87.9639 279.81 88.5328 285.484 85.5646 287.819C82.5965 290.154 77.2167 288.265 73.546 283.602C72.0547 281.759 71.0261 279.586 70.5462 277.264L55.2475 257.312L63.1533 251.281L78.8347 270.739C80.9799 271.751 82.8516 273.262 84.2932 275.146L84.2937 275.147Z" fill="#ED9DA0"/>
<path d="M28.2589 171.823C28.9397 171.671 34.8968 170.437 39.58 174.061C44.9598 178.224 44.6993 185.736 44.6077 188.369C44.3968 194.455 42.0114 195.449 40.593 201.418C37.9387 212.587 42.9937 222.966 45.7866 228.701C48.4524 234.055 51.9096 238.977 56.0417 243.301C68.0657 256.025 78.7946 262.717 78.7946 262.717L67.2696 272.963C67.2696 272.963 48.9107 267.368 36.4707 256.156C23.7099 244.656 4.08654 203.967 0.018778 194.055C-0.331755 193.202 4.63066 207.077 14.1059 186.75C16.2671 182.113 20.2269 173.618 28.2599 171.823H28.2589Z" fill="#B46A76"/>
<path d="M186.046 167.244C170.676 167.244 155.652 162.686 142.872 154.147C130.093 145.608 120.132 133.471 114.25 119.271C108.369 105.071 106.83 89.446 109.828 74.3715C112.827 59.297 120.228 45.4502 131.096 34.582C141.964 23.7139 155.811 16.3126 170.885 13.3141C185.96 10.3156 201.585 11.8545 215.785 17.7363C229.985 23.6181 242.122 33.5786 250.661 46.3581C259.2 59.1377 263.758 74.1624 263.758 89.5323C263.758 99.7375 261.747 109.843 257.842 119.271C253.937 128.699 248.213 137.266 240.996 144.482C233.78 151.699 225.213 157.423 215.785 161.328C206.357 165.234 196.251 167.244 186.046 167.244ZM186.046 13.0453C170.918 13.0453 156.13 17.5312 143.552 25.9358C130.974 34.3404 121.17 46.2861 115.381 60.2624C109.592 74.2387 108.077 89.6178 111.028 104.455C113.98 119.292 121.265 132.921 131.962 143.618C142.659 154.315 156.287 161.599 171.125 164.551C185.962 167.502 201.341 165.987 215.317 160.198C229.293 154.409 241.239 144.605 249.643 132.027C258.048 119.448 262.534 104.66 262.534 89.5323C262.534 69.2465 254.475 49.7916 240.131 35.4475C225.787 21.1033 206.332 13.0453 186.046 13.0453Z" fill="#090814"/>
<path d="M264.567 79.2138H314.396C314.558 79.2138 314.714 79.1493 314.829 79.0346C314.944 78.9198 315.008 78.7641 315.008 78.6018C315.008 78.4396 314.944 78.2839 314.829 78.1691C314.714 78.0544 314.558 77.9899 314.396 77.9899H264.567C264.405 77.9899 264.249 78.0544 264.134 78.1691C264.02 78.2839 263.955 78.4396 263.955 78.6018C263.955 78.7641 264.02 78.9198 264.134 79.0346C264.249 79.1493 264.405 79.2138 264.567 79.2138Z" fill="#3F3D56"/>
<path d="M332.028 127.876C321.925 114.438 316.086 99.4115 315.895 82.2775C315.57 81.3543 315.624 80.3397 316.045 79.4563C316.467 78.5729 317.222 77.8928 318.144 77.5651L352.58 65.3807C353.504 65.0552 354.518 65.1092 355.402 65.5309C356.285 65.9525 356.965 66.7074 357.293 67.6299L373.426 113.229C373.752 114.152 373.698 115.167 373.276 116.05C372.854 116.934 372.1 117.614 371.177 117.942L336.741 130.126C335.817 130.452 334.803 130.398 333.919 129.976C333.036 129.554 332.356 128.799 332.028 127.877V127.876Z" fill="#E6E6E6"/>
<path d="M329.798 113.169C323.722 107.026 321.121 96.0681 319.426 83.8554C319.122 82.9908 319.172 82.0405 319.567 81.2131C319.962 80.3857 320.669 79.7488 321.533 79.4421L351.128 68.9707C351.993 68.6658 352.943 68.7164 353.77 69.1114C354.598 69.5063 355.235 70.2133 355.541 71.0773L369.899 111.653C370.204 112.518 370.153 113.468 369.758 114.295C369.363 115.123 368.656 115.759 367.793 116.066L349.459 122.552C345.607 123.91 341.375 123.685 337.689 121.926C334.003 120.167 331.166 117.017 329.799 113.169L329.798 113.169Z" fill="white"/>
<path d="M355.938 87.637L332.884 95.8661C332.703 95.931 332.51 95.9594 332.317 95.9498C332.125 95.9402 331.936 95.8928 331.762 95.8102C331.587 95.7276 331.431 95.6115 331.301 95.4684C331.172 95.3254 331.072 95.1583 331.007 94.9767C330.942 94.795 330.914 94.6023 330.923 94.4097C330.933 94.217 330.98 94.0282 331.063 93.8539C331.146 93.6795 331.262 93.5232 331.405 93.3938C331.548 93.2643 331.715 93.1643 331.897 93.0995L354.95 84.8704C355.317 84.7395 355.721 84.7596 356.073 84.9265C356.425 85.0934 356.696 85.3932 356.827 85.7601C356.958 86.127 356.938 86.5308 356.771 86.8828C356.604 87.2348 356.305 87.5061 355.938 87.637Z" fill="#B46A76"/>
<path d="M335.248 86.47L330.176 88.2806C329.994 88.3454 329.802 88.3739 329.609 88.3642C329.417 88.3546 329.228 88.3071 329.053 88.2245C328.879 88.1419 328.723 88.0257 328.593 87.8827C328.464 87.7397 328.364 87.5726 328.299 87.3909C328.234 87.2093 328.206 87.0166 328.216 86.824C328.225 86.6313 328.273 86.4425 328.355 86.2682C328.438 86.0939 328.554 85.9376 328.697 85.8082C328.84 85.6788 329.007 85.5788 329.189 85.514L334.261 83.7039C334.442 83.639 334.635 83.6106 334.828 83.6202C335.02 83.6298 335.209 83.6772 335.384 83.7598C335.558 83.8424 335.714 83.9586 335.844 84.1016C335.973 84.2446 336.073 84.4117 336.138 84.5933C336.203 84.775 336.231 84.9677 336.222 85.1603C336.212 85.353 336.165 85.5418 336.082 85.7161C335.999 85.8905 335.883 86.0468 335.74 86.1762C335.597 86.3057 335.43 86.4057 335.248 86.4705L335.248 86.47Z" fill="#B46A76"/>
<path d="M360.279 99.7992L337.225 108.028C337.043 108.093 336.851 108.122 336.658 108.112C336.465 108.102 336.276 108.055 336.102 107.972C335.928 107.89 335.772 107.773 335.642 107.63C335.513 107.487 335.413 107.32 335.348 107.139C335.283 106.957 335.255 106.764 335.264 106.572C335.274 106.379 335.321 106.19 335.404 106.016C335.487 105.842 335.603 105.685 335.746 105.556C335.889 105.426 336.056 105.327 336.238 105.262L359.291 97.0326C359.658 96.9016 360.062 96.9217 360.414 97.0885C360.766 97.2553 361.037 97.5551 361.168 97.922C361.299 98.2889 361.279 98.6928 361.112 99.0448C360.946 99.3969 360.646 99.6682 360.279 99.7992Z" fill="#B46A76"/>
<path d="M358.108 93.7183L335.054 101.947C334.689 102.072 334.289 102.048 333.941 101.881C333.593 101.713 333.325 101.415 333.196 101.051C333.066 100.688 333.084 100.288 333.247 99.9375C333.41 99.5874 333.704 99.3156 334.066 99.1808L357.12 90.9517C357.487 90.8208 357.891 90.841 358.243 91.0078C358.595 91.1747 358.866 91.4745 358.997 91.8414C359.128 92.2083 359.108 92.6121 358.941 92.9641C358.774 93.3161 358.474 93.5874 358.107 93.7183H358.108Z" fill="#B46A76"/>
<path d="M317.854 87.1691C321.234 87.1691 323.973 84.4296 323.973 81.0502C323.973 77.6707 321.234 74.9312 317.854 74.9312C314.475 74.9312 311.735 77.6707 311.735 81.0502C311.735 84.4296 314.475 87.1691 317.854 87.1691Z" fill="#B46A76"/>
<path d="M153.531 20.862H103.702C103.54 20.862 103.384 20.7975 103.27 20.6828C103.155 20.568 103.09 20.4123 103.09 20.25C103.09 20.0877 103.155 19.9321 103.27 19.8173C103.384 19.7026 103.54 19.6381 103.702 19.6381H153.531C153.693 19.6381 153.849 19.7026 153.964 19.8173C154.078 19.9321 154.143 20.0877 154.143 20.25C154.143 20.4123 154.078 20.568 153.964 20.6828C153.849 20.7975 153.693 20.862 153.531 20.862Z" fill="#3F3D56"/>
<path d="M39.2646 42.5673C43.5923 26.3215 51.8031 12.4472 65.1585 1.71438C65.6834 0.88802 66.5148 0.303654 67.4701 0.0895185C68.4254 -0.124617 69.4266 0.0489661 70.2541 0.572179L101.107 20.1287C101.933 20.6537 102.518 21.485 102.732 22.4403C102.946 23.3956 102.772 24.3969 102.249 25.2243L76.3552 66.0773C75.8303 66.9036 74.999 67.488 74.0437 67.7021C73.0884 67.9163 72.0871 67.7427 71.2596 67.2195L40.4068 47.6629C39.5806 47.1379 38.9963 46.3065 38.7822 45.3513C38.568 44.396 38.7415 43.3948 39.2646 42.5673Z" fill="#E6E6E6"/>
<path d="M49.4523 31.728C50.5307 23.1548 57.5413 14.341 66.0992 5.4643C66.5908 4.69038 67.3695 4.14314 68.2642 3.94265C69.1589 3.74215 70.0966 3.90479 70.8715 4.39488L97.3867 21.2011C98.1606 21.6928 98.7079 22.4714 98.9084 23.3661C99.1089 24.2608 98.9462 25.1985 98.4561 25.9734L75.4145 62.3269C74.9228 63.1007 74.1442 63.6478 73.2495 63.8483C72.3548 64.0488 71.4172 63.8862 70.6422 63.3963L54.2162 52.9853C50.7692 50.7951 48.3318 47.3271 47.4386 43.3421C46.5454 39.357 47.2694 35.1804 49.4518 31.7285L49.4523 31.728Z" fill="white"/>
<path d="M81.5113 39.7868L60.7996 26.7413C60.6364 26.6385 60.4951 26.5046 60.3836 26.3472C60.2722 26.1898 60.1929 26.0119 60.1502 25.8239C60.1075 25.6358 60.1022 25.4411 60.1347 25.251C60.1672 25.0609 60.2369 24.8791 60.3397 24.7159C60.4425 24.5527 60.5764 24.4113 60.7338 24.2999C60.8912 24.1885 61.0691 24.1091 61.2572 24.0664C61.4452 24.0237 61.6399 24.0184 61.83 24.051C62.0201 24.0835 62.2019 24.1531 62.3651 24.2559L83.0768 37.3029C83.24 37.4057 83.3813 37.5396 83.4928 37.697C83.6042 37.8544 83.6835 38.0323 83.7262 38.2203C83.769 38.4084 83.7742 38.6031 83.7417 38.7932C83.7092 38.9833 83.6395 39.1651 83.5367 39.3283C83.4339 39.4915 83.3 39.6329 83.1426 39.7443C82.9852 39.8557 82.8073 39.9351 82.6193 39.9778C82.4312 40.0205 82.2365 40.0257 82.0464 39.9932C81.8563 39.9607 81.6745 39.8911 81.5113 39.7883V39.7868Z" fill="#B46A76"/>
<path d="M69.6491 22.7944L65.0941 19.9228C64.7645 19.7152 64.5309 19.3852 64.4447 19.0053C64.3584 18.6255 64.4266 18.2269 64.6342 17.8973C64.8418 17.5677 65.1718 17.3341 65.5517 17.2478C65.9315 17.1616 66.3301 17.2298 66.6597 17.4374L71.2146 20.309C71.5442 20.5166 71.7778 20.8466 71.8641 21.2264C71.9503 21.6063 71.8822 22.0048 71.6746 22.3344C71.467 22.664 71.1369 22.8976 70.7571 22.9839C70.3772 23.0701 69.9787 23.002 69.6491 22.7944Z" fill="#B46A76"/>
<path d="M73.7485 50.0394L53.0374 36.9924C52.7078 36.7848 52.4742 36.4548 52.3879 36.075C52.3017 35.6951 52.3698 35.2966 52.5774 34.967C52.785 34.6374 53.115 34.4038 53.4949 34.3175C53.8747 34.2312 54.2733 34.2994 54.6029 34.507L75.3145 47.554C75.4777 47.6568 75.6191 47.7907 75.7305 47.9481C75.8419 48.1055 75.9213 48.2834 75.964 48.4714C76.0067 48.6595 76.012 48.8542 75.9794 49.0443C75.9469 49.2344 75.8773 49.4162 75.7745 49.5794C75.6717 49.7426 75.5378 49.884 75.3803 49.9954C75.2229 50.1069 75.0451 50.1862 74.857 50.2289C74.6689 50.2716 74.4743 50.2769 74.2842 50.2443C74.094 50.2118 73.9122 50.1422 73.749 50.0394H73.7485Z" fill="#B46A76"/>
<path d="M77.1905 44.5764L56.4789 31.5295C56.1493 31.3219 55.9156 30.9918 55.8294 30.612C55.7431 30.2321 55.8113 29.8336 56.0189 29.504C56.2265 29.1744 56.5565 28.9408 56.9364 28.8545C57.3162 28.7683 57.7148 28.8364 58.0444 29.044L78.756 42.091C79.0856 42.2986 79.3192 42.6286 79.4055 43.0085C79.4917 43.3883 79.4235 43.7869 79.2159 44.1165C79.0083 44.4461 78.6783 44.6797 78.2985 44.7659C77.9186 44.8522 77.5201 44.784 77.1905 44.5764Z" fill="#B46A76"/>
<path d="M100.244 28.8178C103.623 28.8178 106.363 26.0782 106.363 22.6988C106.363 19.3194 103.623 16.5798 100.244 16.5798C96.8645 16.5798 94.1249 19.3194 94.1249 22.6988C94.1249 26.0782 96.8645 28.8178 100.244 28.8178Z" fill="#B46A76"/>
<path d="M208.831 84.6288C208.832 86.2758 208.684 87.9195 208.391 89.5402C207.86 91.6117 207.057 93.6036 206.002 95.4636C203.981 99.0531 201.814 100.393 200.033 103.908C199.727 104.145 199.412 104.358 199.093 104.567C198.453 104.979 198.383 107.001 197.703 107.349C197.699 107.353 197.694 107.353 197.69 107.358C197.48 107.714 197.359 108.115 197.337 108.527V108.537C196.994 110.545 196.697 114.63 196.354 117.046C196.308 117.339 196.265 117.608 196.219 117.844C196.103 118.483 195.983 118.892 195.848 118.942C194.193 119.582 193.488 118.706 191.675 118.942C190.701 119.073 185.729 119.87 184.718 119.87C181.847 119.87 180.295 118.892 177.972 117.844C177.809 117.774 177.647 117.7 177.477 117.626C177.413 117.603 177.361 117.576 177.3 117.552C176.633 117.269 176.002 110.137 175.376 107.438C175.375 107.436 175.373 107.434 175.373 107.432C175.372 107.429 175.372 107.427 175.372 107.424C175.242 106.863 175.112 106.496 174.982 106.423L174.883 106.367C174.47 106.131 174.067 105.872 173.673 105.602C171.283 101.622 166.67 97.8361 164.392 91.6473C163.739 89.3645 163.4 87.0032 163.386 84.6288C163.386 81.6448 163.974 78.69 165.116 75.9331C166.258 73.1763 167.931 70.6713 170.041 68.5613C172.151 66.4513 174.656 64.7776 177.413 63.6357C180.17 62.4937 183.125 61.906 186.109 61.906C189.093 61.906 192.047 62.4937 194.804 63.6357C197.561 64.7776 200.066 66.4513 202.176 68.5613C204.286 70.6713 205.96 73.1763 207.102 75.9331C208.244 78.69 208.831 81.6448 208.831 84.6288Z" fill="#E6E6E6"/>
<path d="M208.391 89.5422C207.861 91.613 207.058 93.6042 206.003 95.4636C203.982 99.0531 201.815 100.393 200.034 103.908C198.85 106.25 197.84 109.556 197.15 115.132C197.109 115.461 197.196 115.837 197.15 116.161C197.044 116.88 197.174 116.751 196.738 117.399C196.539 117.51 196.417 117.353 196.353 117.047C196.25 116.275 196.241 115.494 196.325 114.72C196.45 112.63 196.789 110.558 197.336 108.538V108.528C197.447 108.125 197.567 107.736 197.688 107.36C199.835 100.821 203.795 97.8584 205.59 94.4378C215.016 76.4972 197.595 56.4733 178.406 63.4379C177.377 63.8137 177.432 64.032 177.377 64.0592C175.934 64.685 174.761 64.9593 173.361 65.9094C164.855 71.6977 161.802 83.1469 165.639 92.5791C167.719 97.6846 172.067 100.565 174.881 106.366C175.05 106.703 175.212 107.055 175.368 107.423C175.368 107.426 175.368 107.428 175.369 107.431C175.369 107.433 175.371 107.435 175.372 107.437C176.695 110.675 177.408 114.129 177.474 117.625C177.478 117.689 177.483 117.746 177.483 117.806C177.65 117.82 177.812 117.829 177.97 117.843C180.432 118.057 182.03 118.451 182.853 118.024L183.761 118.117C184.062 118.539 189.129 118.024 189.938 118.015H190.147C192.172 118.066 194.198 118.009 196.217 117.843C196.319 117.833 196.425 117.819 196.528 117.806C196.663 117.837 196.78 117.919 196.857 118.034C196.934 118.15 196.964 118.29 196.941 118.427C197.004 119.011 196.036 120.704 195.707 120.894C194.757 121.451 179.27 121.736 177.789 120.69C177.358 120.388 177.042 119.949 176.893 119.444C176.743 118.94 176.77 118.399 176.968 117.912C176.94 117.781 176.37 117.411 176.347 117.29C176.069 115.711 176.396 111.711 174.497 107.2C174.261 106.647 173.985 106.112 173.671 105.6C171.283 101.621 166.669 97.8361 164.392 91.6429C163.197 88.3187 162.779 84.7653 163.17 81.2546C163.99 72.5369 171.511 63.9577 179.95 61.7922C197.613 57.257 212.527 73.2746 208.391 89.5422Z" fill="#131F2F"/>
<path d="M195.931 121.376C197.4 122.774 196.616 123.247 195.931 124.877C195.067 124.682 180.28 125.628 178.221 124.877C177.891 124.743 177.601 124.528 177.378 124.252C177.154 123.976 177.005 123.647 176.943 123.297C176.881 122.947 176.909 122.588 177.024 122.252C177.139 121.915 177.338 121.614 177.602 121.376C183.693 122.056 189.84 122.056 195.931 121.376Z" fill="#131F2F"/>
<path d="M196.753 125.495C197.332 126.782 196.225 127.571 195.724 128.584L194.695 128.79L178.425 128.584C177.443 128.395 176.823 127.023 176.569 126.112C176.552 125.99 176.573 125.865 176.628 125.755C176.684 125.644 176.772 125.554 176.88 125.495L178.219 125.083C183.596 125.518 188.993 125.655 194.385 125.495C194.745 125.285 195.153 125.175 195.569 125.175C195.985 125.175 196.394 125.285 196.753 125.495Z" fill="#131F2F"/>
<path d="M183.405 108.739H182.979V101.765L175.115 85.114L175.501 84.9313L183.405 101.666V108.739Z" fill="#0F0F10"/>
<path d="M185.99 49.722C186.862 49.1279 186.876 56.0856 186.609 56.3119C185.59 57.1679 185.698 49.9206 185.99 49.722Z" fill="#131F2F"/>
<path d="M178.988 50.3394C179.673 49.8973 181.253 56.4851 181.15 56.8253C180.568 58.7666 178.665 50.5469 178.988 50.3394Z" fill="#131F2F"/>
<path d="M192.991 50.3394C193.807 50.1255 192.434 56.5282 192.271 56.8253C190.726 59.636 192.548 50.4563 192.991 50.3394Z" fill="#131F2F"/>
<path d="M190.051 108.75L189.701 101L189.709 100.97L193.882 83.8123L194.297 83.9113L190.13 101.042L190.477 108.731L190.051 108.75Z" fill="#0F0F10"/>
</svg>
