<svg width="295" height="295" viewBox="0 0 295 295" fill="none" xmlns="http://www.w3.org/2000/svg">
<g clip-path="url(#clip0_9_3545)">
<path d="M295 147.5C295.018 163.629 292.387 179.651 287.21 194.927C286.914 195.8 286.61 196.67 286.298 197.537C280.817 212.695 272.89 226.854 262.834 239.452C259.831 243.218 256.65 246.828 253.29 250.283C249.93 253.744 246.402 257.035 242.707 260.159C222.098 277.636 197.063 289.082 170.362 293.237H170.358C166.954 293.765 163.517 294.177 160.046 294.472C155.914 294.821 151.731 294.997 147.5 295C127.822 295.026 108.339 291.101 90.2053 283.459C72.0717 275.817 55.6566 264.612 41.9327 250.51C40.9683 249.524 40.0184 248.523 39.0831 247.508C36.7527 244.981 34.5111 242.376 32.3583 239.692C31.1495 238.182 29.9698 236.649 28.8192 235.092C21.7317 225.517 15.835 215.116 11.2588 204.117C9.30726 199.433 7.60299 194.649 6.15303 189.786C6.0483 189.441 5.94792 189.097 5.84755 188.752C5.62936 188.01 5.41845 187.264 5.2148 186.513C1.74336 173.8 -0.0105059 160.679 -7.58241e-05 147.5C-7.58241e-05 66.039 66.0389 0 147.5 0C228.961 0 295 66.039 295 147.5Z" fill="#F2F2F2"/>
<path d="M62.5556 88.1648C62.3273 89.5513 62.4057 90.971 62.7854 92.3239C63.1651 93.6768 63.8368 94.93 64.7532 95.9952C65.6696 97.0605 66.8084 97.9118 68.0894 98.4893C69.3704 99.0668 70.7625 99.3564 72.1676 99.3377L95.7127 167.848L110.736 157.523L81.7343 88.906C81.5464 86.5477 80.5 84.3403 78.7933 82.7019C77.0866 81.0636 74.8382 80.1082 72.4742 80.0169C70.1102 79.9255 67.7948 80.7045 65.9667 82.2062C64.1387 83.7079 62.925 85.828 62.5556 88.1648Z" fill="#A0616A"/>
<path d="M185.447 111.345C174.991 123.241 149.209 144.205 127.969 158.641C123.379 161.761 118.997 164.572 115.031 166.924C112.351 168.512 109.859 169.887 107.616 171.008C106.111 171.758 104.467 172.189 102.787 172.274C101.107 172.359 99.4279 172.097 97.8544 171.503C96.2809 170.909 94.8469 169.996 93.6424 168.822C92.4379 167.648 91.4888 166.238 90.8545 164.681L76.1481 129.102L81.2364 125.728L93.7827 117.406L96.6323 115.521L108.397 143.542L120.804 133.583L128.506 127.4L163.618 99.2221L166.647 98.3231L173.712 105.218L178.709 110.097L183.409 110.913C184.111 111.035 184.792 111.179 185.447 111.345Z" fill="#61A7A8"/>
<path d="M279.255 209.102C279.984 210.027 280.739 210.948 281.494 211.873C278.893 217.213 275.97 222.389 272.74 227.374C272.5 227.203 272.26 227.033 272.02 226.863C271.982 226.842 271.945 226.819 271.911 226.793C271.016 226.156 270.117 225.528 269.222 224.89V224.886C268.484 222.375 268.072 219.779 267.996 217.162C268.458 217.056 268.875 216.811 269.193 216.46C269.51 216.109 269.712 215.668 269.77 215.198C269.829 214.729 269.741 214.252 269.52 213.834C269.299 213.415 268.954 213.075 268.533 212.859C268.415 212.654 268.332 212.506 268.214 212.296C268.219 212.244 268.227 212.187 268.232 212.135C268.917 206.684 275.864 204.782 279.255 209.102Z" fill="white"/>
<path d="M287.088 190.424C287.612 191.864 288.089 193.321 288.52 194.793C288.223 195.665 287.919 196.535 287.608 197.402C287.49 196.944 287.367 196.486 287.241 196.028C286.531 193.48 285.679 190.974 284.688 188.522C283.876 186.51 282.977 184.54 281.991 182.613C276.628 172.142 268.857 163.094 259.316 156.211C255.373 155.299 251.805 153.201 249.092 150.198C248.113 149.119 247.294 147.905 246.661 146.593C247.062 146.537 247.464 146.458 247.857 146.375C247.979 146.349 248.105 146.318 248.228 146.292L248.276 146.283C248.705 146.184 249.096 145.962 249.403 145.646C249.709 145.329 249.918 144.93 250.003 144.498C250.088 144.065 250.047 143.618 249.884 143.208C249.72 142.799 249.442 142.445 249.083 142.19C248.86 142.029 248.633 141.872 248.411 141.714C248.071 141.466 247.726 141.23 247.381 140.986C247.345 140.963 247.31 140.938 247.276 140.912C246.884 140.632 246.491 140.362 246.102 140.078C246.404 139.106 246.925 138.216 247.625 137.477C250.065 134.959 254.42 135.016 257.265 137.067C260.115 139.118 261.546 142.709 261.73 146.209C261.891 149.207 261.245 152.175 260.394 155.068C260.608 155.225 260.831 155.374 261.044 155.535C264.973 158.447 268.607 161.737 271.893 165.358C269.995 160.855 269.305 154.981 269.798 150.935C270.361 146.327 272.6 141.95 274.433 137.591C276.628 132.354 284.116 132.284 286.229 137.556C286.25 137.608 286.272 137.656 286.29 137.708C285.936 138.062 285.596 138.428 285.268 138.808C284.858 139.287 284.601 139.878 284.531 140.505C284.462 141.132 284.584 141.765 284.881 142.321C285.177 142.878 285.635 143.332 286.194 143.624C286.753 143.916 287.387 144.032 288.013 143.958L288.079 143.949C288.351 145.505 288.506 147.079 288.541 148.657C288.596 153.075 287.737 157.456 286.019 161.526C284.3 165.596 281.76 169.267 278.557 172.31C278.347 172.506 278.142 172.698 277.928 172.886C279.95 175.761 281.766 178.775 283.361 181.906C284.778 184.666 286.023 187.511 287.088 190.424Z" fill="white"/>
<path d="M203.003 149.486L201.685 239.997L95.2228 236.943L112.225 199.413C112.102 198.209 119.687 189.756 119.643 188.503C119.512 184.833 122.253 181.434 122.698 177.593C123.606 169.673 118.408 139.763 120.804 133.583C121.825 130.824 123.132 128.18 124.705 125.694C126.067 123.634 127.463 122.246 128.799 121.744L132.735 112.571L136.226 107.335L163.618 99.2221L166.647 98.3231L173.712 105.218L178.709 110.097L183.409 110.913C184.111 111.035 184.792 111.179 185.446 111.345C188.599 112.072 191.538 113.528 194.026 115.595C202.23 122.565 203.186 135.674 203.003 149.486Z" fill="#61A7A8"/>
<path d="M264.143 239.318C261.14 243.084 257.959 246.694 254.599 250.149L243.087 250.157L181.176 250.227L170.031 250.24L162.621 250.249L151.598 250.258L143.119 250.267L127.457 250.284L118.218 250.297L98.7639 250.315L89.4775 250.328L63.7436 250.354L47.5797 250.371L43.242 250.376C42.2775 249.389 41.3277 248.389 40.3923 247.373C38.062 244.847 35.8204 242.241 33.6675 239.558L42.6485 239.549L48.7667 239.544L62.9319 239.527L90.2674 239.501L99.5058 239.492L103.241 239.488H103.254L106.187 239.483L107.5 239.479L110.865 239.475H112.288L122.264 239.466L143.782 239.44L153.252 239.431L162.32 239.422L170.821 239.413L183.018 239.4L248.162 239.335L264.143 239.318Z" fill="#CCCCCC"/>
<path d="M116.85 103.412L116.827 103.415C115.568 103.532 114.314 103.144 113.341 102.337C112.368 101.529 111.755 100.368 111.638 99.1095L109.157 72.6208C108.707 67.8755 109.217 63.0884 110.655 58.5439C113.473 49.6745 119.606 42.2349 127.774 37.7755C131.992 35.4789 136.631 34.0602 141.412 33.6047C160.971 31.7413 168.118 35.8148 180.2 65.6451C192.282 95.4753 182.686 92.1741 182.686 92.1741C182.746 92.8125 182.678 93.4565 182.484 94.0678C182.104 95.2604 181.277 96.26 180.177 96.8577C179.613 97.1637 178.993 97.3532 178.354 97.4148C155.231 103.292 131.899 109.479 116.846 103.413L116.85 103.412Z" fill="#131F2F"/>
<path d="M159.888 58.7036C162.791 62.9982 164.355 68.0566 164.385 73.24C164.414 78.4233 162.907 83.4992 160.053 87.8264C157.2 92.1536 153.128 95.5382 148.352 97.5525C143.575 99.5669 138.31 100.121 133.219 99.1441C129.849 98.5086 126.639 97.2107 123.774 95.3256C120.91 93.4405 118.448 91.0057 116.531 88.1622C113.634 83.8691 112.074 78.8145 112.046 73.6357C112.018 68.4569 113.524 63.3858 116.375 59.0618C119.225 54.7379 123.292 51.3546 128.062 49.3386C132.832 47.3225 138.093 46.7641 143.18 47.7335C146.552 48.3653 149.766 49.6604 152.634 51.5437C155.502 53.427 157.968 55.861 159.888 58.7046L159.888 58.7036Z" fill="#9E616A"/>
<path d="M100.957 75.5636C100.602 71.8107 101.005 68.0246 102.142 64.4305C102.406 55.6384 104.957 47.6749 115.68 48.0092C118.995 46.206 122.639 45.0879 126.394 44.7215L131.694 44.1983C131.753 44.1923 131.813 44.1866 131.872 44.1811C135.544 43.8394 139.246 44.2242 142.769 45.3134C146.292 46.4027 149.565 48.1752 152.403 50.5296C155.241 52.8841 157.587 55.7744 159.307 59.0355C161.028 62.2966 162.089 65.8648 162.431 69.5361L162.481 70.0667L151.269 71.1627L146.444 60.837L146.682 71.6133L140.892 72.1817L138.459 66.9721L138.577 72.4055C129.98 79.9775 116.943 80.3744 101.012 76.0947L100.957 75.5636Z" fill="#131F2F"/>
<path d="M136.819 100.699C136.724 101.572 136.875 102.454 137.256 103.245C137.448 103.65 137.696 104.026 137.993 104.363C138.246 104.649 138.533 104.905 138.847 105.124C139.775 105.771 140.904 106.065 142.03 105.955C142.101 105.947 142.171 105.939 142.24 105.929C142.31 105.919 142.38 105.908 142.45 105.894C142.52 105.882 142.59 105.867 142.659 105.851C142.728 105.835 142.798 105.817 142.868 105.798L146.781 104.701L151.166 92.4739L152.171 103.203L169.964 98.2495L165.698 52.7187L135.372 55.707L136.203 56.5078C138.967 59.1976 140.935 62.5977 141.89 66.3338C142.839 70.1198 143.131 74.0404 142.756 77.9253C142.405 81.8535 141.677 85.739 140.584 89.5282C139.632 92.8835 138.487 96.1812 137.156 99.4048C136.984 99.8185 136.87 100.254 136.819 100.699Z" fill="#131F2F"/>
<path d="M140.863 244.252C140.342 244.251 139.827 244.135 139.356 243.911L55.3423 246.054C54.6976 245.749 54.1607 245.255 53.8025 244.638C53.4443 244.022 53.2817 243.31 53.3361 242.599C53.3904 241.888 53.6593 241.21 54.1071 240.655C54.5549 240.099 55.1606 239.693 55.8442 239.489L110.808 223.1C111.378 222.931 111.98 222.908 112.561 223.033L197.581 233.396C198.334 233.559 199.012 233.963 199.513 234.547C200.014 235.132 200.31 235.864 200.356 236.632C200.402 237.401 200.195 238.163 199.767 238.803C199.339 239.442 198.713 239.925 197.985 240.175L142.015 244.058C141.644 244.186 141.255 244.251 140.863 244.252Z" fill="#131F2F"/>
<path d="M143.953 238.403C143.574 238.403 143.201 238.306 142.87 238.121L74.6381 241.309C74.2507 241.092 73.9376 240.763 73.7398 240.365C73.5419 239.967 73.4684 239.519 73.5289 239.079C73.5893 238.639 73.7809 238.227 74.0786 237.897C74.3763 237.568 74.7665 237.335 75.1982 237.231L99.8995 231.235C100.285 231.142 100.688 231.154 101.068 231.27L164.499 231.193C164.95 231.332 165.346 231.611 165.627 231.99C165.909 232.369 166.062 232.828 166.063 233.301C166.065 233.773 165.915 234.233 165.637 234.614C165.358 234.995 164.964 235.277 164.514 235.419L144.613 238.303C144.4 238.369 144.177 238.403 143.953 238.403Z" fill="#131F2F"/>
<path d="M136.771 234.767C137.952 235.528 139.286 236.021 140.678 236.212C142.07 236.402 143.487 236.284 144.829 235.868C146.171 235.451 147.406 234.745 148.445 233.8C149.485 232.855 150.305 231.693 150.847 230.397L223.068 236.07L219.577 218.178L145.086 217.468C142.848 216.702 140.406 216.783 138.224 217.696C136.041 218.61 134.27 220.292 133.245 222.424C132.22 224.557 132.013 226.991 132.663 229.265C133.313 231.54 134.775 233.498 136.771 234.767Z" fill="#A0616A"/>
<path d="M179.429 118.244C179.429 118.244 190.338 109.517 203.43 125.227C212.259 135.821 229.29 199.869 230.702 226.409C230.792 228.089 230.533 229.768 229.943 231.343C229.353 232.918 228.444 234.354 227.272 235.561C226.101 236.768 224.693 237.72 223.137 238.357C221.581 238.995 219.91 239.304 218.228 239.266L179.734 238.596L175.43 214.398L205.821 214.758L179.429 118.244Z" fill="#61A7A8"/>
<path d="M136.19 244.262C134.87 244.26 133.563 243.996 132.346 243.483L54.4754 245.26C52.4202 244.403 50.7143 242.878 49.6332 240.931C48.5522 238.984 48.1594 236.73 48.5182 234.532L45.6247 166.145C46.0084 163.702 47.2941 161.492 49.2279 159.951C51.1617 158.41 53.603 157.65 56.0698 157.821L128.364 160.82C129.751 160.911 131.104 161.293 132.335 161.94C133.566 162.588 134.647 163.487 135.508 164.579C136.368 165.671 136.99 166.932 137.332 168.28C137.675 169.628 137.73 171.033 137.494 172.403L145.964 236.015C145.566 238.32 144.367 240.411 142.58 241.919C140.792 243.427 138.529 244.257 136.19 244.262Z" fill="#131F2F"/>
<path d="M77.0602 40.6585L44.5622 40.5668C43.6911 40.5658 42.8551 40.9102 42.2375 41.5245C41.6199 42.1389 41.271 42.973 41.2674 43.8441L41.1496 86.8766C41.1478 87.7468 41.4914 88.5822 42.1051 89.1991C42.7188 89.8161 43.5523 90.1642 44.4225 90.167L62.4498 90.2194L76.9249 90.2586C77.7958 90.2602 78.6316 89.9159 79.2487 89.3013C79.8657 88.6867 80.2134 87.8522 80.2153 86.9813L80.224 84.4372L80.3375 43.9532C80.3392 43.0819 79.9951 42.2455 79.3806 41.6277C78.7661 41.0099 77.9315 40.6613 77.0602 40.6585Z" fill="#E6E6E6"/>
<path d="M74.7691 43.2288L46.8401 43.1503C46.0246 43.1492 45.2419 43.4716 44.6635 44.0466C44.0852 44.6217 43.7584 45.4025 43.7548 46.2181L43.6763 73.8853C43.6708 77.5187 45.1067 81.0059 47.6689 83.5821C50.2312 86.1583 53.7106 87.613 57.344 87.6272L62.6505 87.6403L74.6469 87.6752C75.4627 87.677 76.2458 87.3549 76.8243 86.7797C77.4028 86.2045 77.7294 85.4232 77.7322 84.6074L77.7409 81.8232L77.8369 46.3141C77.8387 45.4983 77.5166 44.7152 76.9414 44.1367C76.3662 43.5582 75.5849 43.2317 74.7691 43.2288Z" fill="white"/>
<path d="M71.6315 62.1333H49.8556C49.6839 62.1333 49.514 62.1671 49.3554 62.2328C49.1968 62.2984 49.0527 62.3947 48.9314 62.5161C48.81 62.6374 48.7137 62.7815 48.6481 62.9401C48.5824 63.0987 48.5486 63.2686 48.5486 63.4403C48.5486 63.6119 48.5824 63.7819 48.6481 63.9404C48.7137 64.099 48.81 64.2431 48.9314 64.3644C49.0527 64.4858 49.1968 64.5821 49.3554 64.6478C49.514 64.7134 49.6839 64.7472 49.8556 64.7472H71.6315C71.9781 64.7472 72.3105 64.6096 72.5556 64.3644C72.8008 64.1193 72.9384 63.7869 72.9384 63.4403C72.9384 63.0936 72.8008 62.7612 72.5556 62.5161C72.3105 62.271 71.9781 62.1333 71.6315 62.1333Z" fill="#61A7A8"/>
<path d="M54.6428 54.9677H49.8556C49.5089 54.9677 49.1765 55.1054 48.9314 55.3506C48.6863 55.5957 48.5486 55.9281 48.5486 56.2747C48.5486 56.6214 48.6863 56.9538 48.9314 57.1989C49.1765 57.444 49.5089 57.5817 49.8556 57.5817H54.6428C54.9894 57.5817 55.3219 57.444 55.567 57.1989C55.8121 56.9538 55.9498 56.6214 55.9498 56.2747C55.9498 55.9281 55.8121 55.5957 55.567 55.3506C55.3219 55.1054 54.9894 54.9677 54.6428 54.9677Z" fill="#61A7A8"/>
<path d="M71.6315 73.6234H49.8556C49.5089 73.6234 49.1765 73.7611 48.9314 74.0062C48.6863 74.2513 48.5486 74.5838 48.5486 74.9304C48.5486 75.277 48.6863 75.6095 48.9314 75.8546C49.1765 76.0997 49.5089 76.2374 49.8556 76.2374H71.6315C71.9781 76.2374 72.3105 76.0997 72.5556 75.8546C72.8008 75.6095 72.9384 75.277 72.9384 74.9304C72.9384 74.5838 72.8008 74.2513 72.5556 74.0062C72.3105 73.7611 71.9781 73.6234 71.6315 73.6234Z" fill="#61A7A8"/>
<path d="M71.6315 67.8805H49.8556C49.5095 67.8805 49.1776 68.018 48.9329 68.2627C48.6882 68.5074 48.5508 68.8392 48.5508 69.1853C48.5508 69.5314 48.6882 69.8632 48.9329 70.1079C49.1776 70.3526 49.5095 70.4901 49.8556 70.4901H71.6315C71.9775 70.4901 72.3094 70.3526 72.5541 70.1079C72.7988 69.8632 72.9363 69.5314 72.9363 69.1853C72.9363 68.8392 72.7988 68.5074 72.5541 68.2627C72.3094 68.018 71.9775 67.8805 71.6315 67.8805Z" fill="#61A7A8"/>
<path d="M67.4001 59.5893C65.871 59.5893 64.3762 59.1359 63.1048 58.2863C61.8334 57.4368 60.8425 56.2294 60.2573 54.8167C59.6722 53.4039 59.5191 51.8494 59.8174 50.3497C60.1157 48.85 60.852 47.4724 61.9333 46.3912C63.0145 45.3099 64.3921 44.5736 65.8918 44.2753C67.3915 43.977 68.946 44.1301 70.3587 44.7153C71.7714 45.3004 72.9789 46.2913 73.8284 47.5627C74.6779 48.8342 75.1314 50.3289 75.1314 51.858C75.129 53.9078 74.3138 55.8729 72.8644 57.3223C71.415 58.7717 69.4498 59.587 67.4001 59.5893ZM67.4001 44.664C65.9773 44.664 64.5864 45.0859 63.4033 45.8764C62.2203 46.6669 61.2982 47.7904 60.7537 49.105C60.2092 50.4195 60.0667 51.866 60.3443 53.2615C60.6219 54.657 61.307 55.9388 62.3131 56.9449C63.3192 57.951 64.6011 58.6362 65.9966 58.9138C67.3921 59.1914 68.8386 59.0489 70.1531 58.5044C71.4676 57.9599 72.5912 57.0378 73.3817 55.8548C74.1722 54.6717 74.5941 53.2809 74.5941 51.858C74.5919 49.9507 73.8333 48.1222 72.4846 46.7735C71.136 45.4248 69.3074 44.6662 67.4001 44.664Z" fill="#61A7A8"/>
<path d="M70.647 54.8526C70.113 52.0956 69.0008 49.4829 67.3836 47.187C67.3471 47.1274 67.296 47.0783 67.2351 47.0442C67.1742 47.01 67.1055 46.9921 67.0357 46.9921C66.9659 46.9921 66.8972 47.01 66.8363 47.0442C66.7754 47.0783 66.7242 47.1274 66.6877 47.187C65.2793 49.6504 64.3791 52.3712 64.0402 55.1885C63.9776 55.7021 64.784 55.6976 64.8461 55.1885C64.9594 54.2755 65.1359 53.3714 65.3744 52.4829C65.4053 52.4768 65.4355 52.4675 65.4645 52.4553C66.5361 51.9173 67.7467 51.7201 68.9337 51.8904C68.944 51.8919 68.954 51.8896 68.9643 51.8907C69.3563 52.9216 69.6592 53.9842 69.8699 55.0669C69.9682 55.5756 70.7451 55.3602 70.647 54.8526ZM65.6645 51.4945C66.0344 50.347 66.5053 49.2344 67.0718 48.1701C67.6713 49.086 68.1918 50.0513 68.6278 51.0554C67.6197 50.9796 66.6073 51.1296 65.6645 51.4945Z" fill="#61A7A8"/>
</g>
<defs>
<clipPath id="clip0_9_3545">
<rect width="295" height="295" fill="white"/>
</clipPath>
</defs>
</svg>
